<?xml version="1.0" encoding="UTF-8" standalone="no"?>
<!-- Created with Inkscape (http://www.inkscape.org/) -->
<svg xmlns:dc="http://purl.org/dc/elements/1.1/" xmlns:cc="http://creativecommons.org/ns#" xmlns:rdf="http://www.w3.org/1999/02/22-rdf-syntax-ns#" xmlns:svg="http://www.w3.org/2000/svg" xmlns="http://www.w3.org/2000/svg" version="1.1" width="1499.6801" height="633.56226" id="svg2">
  <defs id="defs4">
    <marker refX="0" refY="0" orient="auto" id="Arrow1SstartR" style="overflow:visible">
      <path d="M 0,0 5,-5 -12.5,0 5,5 0,0 z" transform="matrix(0.2,0,0,0.2,1.2,0)" id="path5197" style="fill:#00d200;fill-rule:evenodd;stroke:#00d200;stroke-width:1pt;marker-start:none"/>
    </marker>
    <marker refX="0" refY="0" orient="auto" id="Arrow1SendI" style="overflow:visible">
      <path d="M 0,0 5,-5 -12.5,0 5,5 0,0 z" transform="matrix(-0.2,0,0,-0.2,-1.2,0)" id="path5200" style="fill:#00d200;fill-rule:evenodd;stroke:#00d200;stroke-width:1pt;marker-start:none"/>
    </marker>
    <marker refX="0" refY="0" orient="auto" id="Arrow1Sstarte" style="overflow:visible">
      <path d="M 0,0 5,-5 -12.5,0 5,5 0,0 z" transform="matrix(0.2,0,0,0.2,1.2,0)" id="path5203" style="fill:#00d200;fill-rule:evenodd;stroke:#00d200;stroke-width:1pt;marker-start:none"/>
    </marker>
    <marker refX="0" refY="0" orient="auto" id="Arrow1Sendp" style="overflow:visible">
      <path d="M 0,0 5,-5 -12.5,0 5,5 0,0 z" transform="matrix(-0.2,0,0,-0.2,-1.2,0)" id="path5206" style="fill:#00d200;fill-rule:evenodd;stroke:#00d200;stroke-width:1pt;marker-start:none"/>
    </marker>
    <marker refX="0" refY="0" orient="auto" id="Arrow1Sstartj" style="overflow:visible">
      <path d="M 0,0 5,-5 -12.5,0 5,5 0,0 z" transform="matrix(0.2,0,0,0.2,1.2,0)" id="path5209" style="fill:#00d200;fill-rule:evenodd;stroke:#00d200;stroke-width:1pt;marker-start:none"/>
    </marker>
    <marker refX="0" refY="0" orient="auto" id="Arrow1Send9" style="overflow:visible">
      <path d="M 0,0 5,-5 -12.5,0 5,5 0,0 z" transform="matrix(-0.2,0,0,-0.2,-1.2,0)" id="path5212" style="fill:#00d200;fill-rule:evenodd;stroke:#00d200;stroke-width:1pt;marker-start:none"/>
    </marker>
    <marker refX="0" refY="0" orient="auto" id="Arrow1Sstart1" style="overflow:visible">
      <path d="M 0,0 5,-5 -12.5,0 5,5 0,0 z" transform="matrix(0.2,0,0,0.2,1.2,0)" id="path5215" style="fill:#00d200;fill-rule:evenodd;stroke:#00d200;stroke-width:1pt;marker-start:none"/>
    </marker>
    <marker refX="0" refY="0" orient="auto" id="Arrow1SendJ" style="overflow:visible">
      <path d="M 0,0 5,-5 -12.5,0 5,5 0,0 z" transform="matrix(-0.2,0,0,-0.2,-1.2,0)" id="path5218" style="fill:#00d200;fill-rule:evenodd;stroke:#00d200;stroke-width:1pt;marker-start:none"/>
    </marker>
    <marker refX="0" refY="0" orient="auto" id="Arrow1Sstartl" style="overflow:visible">
      <path d="M 0,0 5,-5 -12.5,0 5,5 0,0 z" transform="matrix(0.2,0,0,0.2,1.2,0)" id="path5221" style="fill:#00d200;fill-rule:evenodd;stroke:#00d200;stroke-width:1pt;marker-start:none"/>
    </marker>
    <marker refX="0" refY="0" orient="auto" id="Arrow1SendP" style="overflow:visible">
      <path d="M 0,0 5,-5 -12.5,0 5,5 0,0 z" transform="matrix(-0.2,0,0,-0.2,-1.2,0)" id="path5224" style="fill:#00d200;fill-rule:evenodd;stroke:#00d200;stroke-width:1pt;marker-start:none"/>
    </marker>
    <marker refX="0" refY="0" orient="auto" id="Arrow1Sstartq" style="overflow:visible">
      <path d="M 0,0 5,-5 -12.5,0 5,5 0,0 z" transform="matrix(0.2,0,0,0.2,1.2,0)" id="path5227" style="fill:#00d200;fill-rule:evenodd;stroke:#00d200;stroke-width:1pt;marker-start:none"/>
    </marker>
    <marker refX="0" refY="0" orient="auto" id="Arrow1Sendg" style="overflow:visible">
      <path d="M 0,0 5,-5 -12.5,0 5,5 0,0 z" transform="matrix(-0.2,0,0,-0.2,-1.2,0)" id="path5230" style="fill:#00d200;fill-rule:evenodd;stroke:#00d200;stroke-width:1pt;marker-start:none"/>
    </marker>
  </defs>
  <metadata id="metadata7">
    <rdf:RDF>
      <cc:Work rdf:about="">
        <dc:format>image/svg+xml</dc:format>
        <dc:type rdf:resource="http://purl.org/dc/dcmitype/StillImage"/>
        <dc:title/>
      </cc:Work>
    </rdf:RDF>
  </metadata>
  <rect width="1520" height="660" x="0" y="-6.4377441" id="rect3516" style="fill:#ffffff;fill-opacity:1;stroke:none"/>
  <path d="m 183.91072,419.7168 536.34601,0" id="path3995" style="fill:none;stroke:#000000;stroke-width:8;stroke-linecap:round;stroke-linejoin:round;stroke-miterlimit:4;stroke-opacity:1;stroke-dasharray:none"/>
  <path d="m 932.13607,388.1384 c -10.71915,0 -15.19491,-74.2825 -15.26191,-124.23388 -0.11827,-88.86039 10.13476,-183.460111 26.51959,-183.460111" id="path3999" style="fill:none;stroke:#000000;stroke-width:8;stroke-linecap:round;stroke-linejoin:round;stroke-miterlimit:4;stroke-opacity:1;stroke-dasharray:none"/>
  <path d="m 910.27915,388.1384 c -10.58211,0 -15.05787,-74.2825 -15.12487,-124.23388 -0.11825,-88.86039 10.13479,-183.460121 26.5196,-183.460121" id="path4003" style="fill:none;stroke:#000000;stroke-width:8;stroke-linecap:round;stroke-linejoin:round;stroke-miterlimit:4;stroke-opacity:1;stroke-dasharray:none"/>
  <path d="m 887.8216,388.1384 c -10.37606,0 -14.85176,-74.2825 -14.91886,-124.23388 -0.11825,-88.86039 10.1348,-183.460111 26.51962,-183.460111" id="path4007" style="fill:none;stroke:#000000;stroke-width:8;stroke-linecap:round;stroke-linejoin:round;stroke-miterlimit:4;stroke-opacity:1;stroke-dasharray:none"/>
  <path d="m 865.36405,388.1384 c -10.58208,0 -15.05788,-74.2825 -15.12488,-124.23388 -0.11824,-88.86039 10.1348,-183.460111 26.51963,-183.460111" id="path4011" style="fill:none;stroke:#000000;stroke-width:8;stroke-linecap:round;stroke-linejoin:round;stroke-miterlimit:4;stroke-opacity:1;stroke-dasharray:none"/>
  <path d="M 840.55913,419.71679 C 834.51318,402.53331 828.05467,313.8559 827.98767,263.90452 827.86942,175.04413 838.12246,80.444409 854.50729,80.444409" id="path4015" style="fill:none;stroke:#000000;stroke-width:8;stroke-linecap:round;stroke-linejoin:round;stroke-miterlimit:4;stroke-opacity:1;stroke-dasharray:none"/>
  <path d="m 1396.3634,419.71679 -555.80427,0" id="path4017" style="fill:none;stroke:#000000;stroke-width:8;stroke-linecap:round;stroke-linejoin:round;stroke-miterlimit:4;stroke-opacity:1;stroke-dasharray:none"/>
  <path d="m 970.64463,285.03755 425.52157,0" id="path3959" style="fill:none;stroke:#000000;stroke-width:8;stroke-linecap:round;stroke-linejoin:round;stroke-miterlimit:4;stroke-opacity:1;stroke-dasharray:none"/>
  <path d="m 706.30857,80.444401 c -16.38533,0 -27.25487,95.676529 -27.25487,183.460129 -0.24057,44.48656 4.70811,124.23388 16.39811,124.23388" id="path3989" style="fill:none;stroke:#000000;stroke-width:8;stroke-linecap:round;stroke-linejoin:round;stroke-miterlimit:4;stroke-opacity:1;stroke-dasharray:none"/>
  <path d="m 684.05706,80.444401 c -16.38532,0 -27.25487,95.676529 -27.25487,183.460129 -0.24057,44.48656 4.70811,124.23388 16.19207,124.23388" id="path3985" style="fill:none;stroke:#000000;stroke-width:8;stroke-linecap:round;stroke-linejoin:round;stroke-miterlimit:4;stroke-opacity:1;stroke-dasharray:none"/>
  <path d="m 661.3935,80.444401 c -16.38533,0 -27.25487,95.676529 -27.25487,183.460129 -0.24058,44.48656 4.70808,124.23388 16.39808,124.23388" id="path3981" style="fill:none;stroke:#000000;stroke-width:8;stroke-linecap:round;stroke-linejoin:round;stroke-miterlimit:4;stroke-opacity:1;stroke-dasharray:none"/>
  <path d="m 639.14198,80.444391 c -16.38535,0 -27.25487,95.676539 -27.25487,183.460139 -0.2406,44.48656 4.96563,124.23388 16.79268,124.23388" id="path3977" style="fill:none;stroke:#000000;stroke-width:8;stroke-linecap:round;stroke-linejoin:round;stroke-miterlimit:4;stroke-opacity:1;stroke-dasharray:none"/>
  <path d="m 617.42211,80.444401 c -16.38536,0 -27.25488,95.676529 -27.25488,183.460129 -0.0388,7.17821 0.0575,12.60189 0.29577,21.13303 l -406.55228,0" id="path3922" style="fill:none;stroke:#000000;stroke-width:8;stroke-linecap:round;stroke-linejoin:round;stroke-miterlimit:4;stroke-opacity:1;stroke-dasharray:none"/>
  <rect width="197.14285" height="197.14285" x="-1247.2543" y="249.81223" transform="scale(-1,1)" id="rect7056" style="fill:#e9e9e9;fill-opacity:1;stroke:#000000;stroke-width:8;stroke-linecap:round;stroke-linejoin:round;stroke-miterlimit:4;stroke-opacity:1;stroke-dasharray:none"/>
  <path d="m 1396.3634,419.71679 -0.057,-25.22171 20.203,-10.1015 -40.2209,-19.7051 40.2209,-20.1959 -39.901,-19.698 19.7552,-10.4061 -0.1973,-29.35093" id="path2182-1" style="fill:none;stroke:#000000;stroke-width:8;stroke-linecap:round;stroke-linejoin:round;stroke-miterlimit:4;stroke-opacity:1;stroke-dasharray:none"/>
  <path d="m 1170.8857,605 a 5.8857236,5.8857236 0 1 1 -0,-0.1141" transform="matrix(2.0186661,0,0,1.9982787,-2167.5995,-789.24181)" id="path5878" style="color:#000000;fill:#000000;fill-opacity:1;fill-rule:evenodd;stroke:#000000;stroke-width:4.429708;stroke-linecap:round;stroke-linejoin:round;stroke-miterlimit:4;stroke-opacity:1;stroke-dasharray:none;stroke-dashoffset:0;marker:none;visibility:visible;display:inline;overflow:visible;enable-background:accumulate"/>
  <path d="m 1170.8857,605 a 5.8857236,5.8857236 0 1 1 -0,-0.1141" transform="matrix(2.0186661,0,0,1.9982787,-2167.8353,-923.69305)" id="path8594" style="color:#000000;fill:#000000;fill-opacity:1;fill-rule:evenodd;stroke:#000000;stroke-width:4.429708;stroke-linecap:round;stroke-linejoin:round;stroke-miterlimit:4;stroke-opacity:1;stroke-dasharray:none;stroke-dashoffset:0;marker:none;visibility:visible;display:inline;overflow:visible;enable-background:accumulate"/>
  <text x="68.542572" y="374.57782" id="text8596" xml:space="preserve" style="font-size:84px;font-style:normal;font-variant:normal;font-weight:normal;font-stretch:normal;text-align:start;line-height:100%;letter-spacing:0px;word-spacing:0px;writing-mode:lr-tb;text-anchor:start;fill:#000000;fill-opacity:1;stroke:none;font-family:Arial;-inkscape-font-specification:Arial"><tspan x="68.542572" y="374.57782" id="tspan8598" style="font-size:84px;font-style:normal;font-variant:normal;font-weight:normal;font-stretch:normal;text-align:start;line-height:100%;writing-mode:lr-tb;text-anchor:start;font-family:Arial;-inkscape-font-specification:Arial">V<tspan id="tspan8602" style="font-size:84px;font-style:normal;font-variant:normal;font-weight:normal;font-stretch:normal;text-align:start;line-height:100%;writing-mode:lr-tb;text-anchor:start;baseline-shift:sub;font-family:Arial;-inkscape-font-specification:Arial"/></tspan></text>
  <text x="678.87421" y="1134.922" id="text8623" xml:space="preserve" style="font-size:72px;font-style:normal;font-variant:normal;font-weight:normal;font-stretch:normal;text-align:start;line-height:100%;letter-spacing:0px;word-spacing:0px;writing-mode:lr-tb;text-anchor:start;fill:#000000;fill-opacity:1;stroke:none;font-family:Arial;-inkscape-font-specification:Arial"><tspan x="678.87421" y="1134.922" id="tspan8625"/></text>
  <rect width="197.14285" height="197.14285" x="310.07742" y="255.19189" id="rect5242" style="fill:#e9e9e9;fill-opacity:1;stroke:#000000;stroke-width:8;stroke-linecap:round;stroke-linejoin:round;stroke-miterlimit:4;stroke-opacity:1;stroke-dasharray:none"/>
  <path d="m 543.59208,56.102464 c 32.51088,86.490696 209.03564,88.298996 246.65619,0" id="path4019" style="fill:none;stroke:#00d200;stroke-width:12;stroke-linecap:butt;stroke-linejoin:miter;stroke-miterlimit:4;stroke-opacity:1;stroke-dasharray:none;marker-start:url(#Arrow1Sstartq);marker-mid:none;marker-end:url(#Arrow1Sendg)"/>
  <path d="m 312.63025,160.70394 c 243.27096,64.35568 472.31997,60.20388 710.62725,0" id="path3829" style="fill:none;stroke:#00d200;stroke-width:12;stroke-linecap:butt;stroke-linejoin:miter;stroke-miterlimit:4;stroke-opacity:1;stroke-dasharray:none;marker-start:url(#Arrow1Sstartl);marker-mid:none;marker-end:url(#Arrow1SendP)"/>
  <path d="m 364.79558,61.731907 c 208.87142,144.849343 405.53193,135.504623 610.14152,0" id="path4043" style="fill:none;stroke:#00d200;stroke-width:12;stroke-linecap:butt;stroke-linejoin:miter;stroke-miterlimit:4;stroke-opacity:1;stroke-dasharray:none;marker-start:url(#Arrow1Sstarte);marker-mid:none;marker-end:url(#Arrow1Sendp)"/>
  <path d="M 343.51222,300.07263 C 586.78317,235.71695 800.27602,243.2732 1022.471,320.9321" id="path3853" style="fill:none;stroke:#00d200;stroke-width:12;stroke-linecap:butt;stroke-linejoin:miter;stroke-miterlimit:4;stroke-opacity:1;stroke-dasharray:none;marker-start:url(#Arrow1SstartR);marker-mid:none;marker-end:url(#Arrow1SendI)"/>
  <path d="m 943.39375,80.444409 c 16.38536,0 27.25488,95.676511 27.25488,183.460111 0.0388,7.17821 0.23439,12.60189 -0.004,21.13303" id="path4031" style="fill:none;stroke:#000000;stroke-width:8;stroke-linecap:round;stroke-linejoin:round;stroke-miterlimit:4;stroke-opacity:1;stroke-dasharray:none"/>
  <g transform="matrix(0.9940241,-0.1091607,-0.1091607,-0.9940241,438.50347,-731.47674)" id="g2291" style="stroke-width:8;stroke-miterlimit:4;stroke-dasharray:none;display:inline">
    <path d="m -94.05025,-1074.616 c -6.9998,-15.4615 -24.63026,-22.4758 -39.37876,-15.6669 -6.91509,3.1925 -12.28746,9.0727 -14.98657,16.4031 m 0.4765,-2.4073 c -6.9998,15.4615 -24.63027,22.4758 -39.37876,15.6669 -6.91511,-3.1925 -12.28747,-9.0727 -14.98658,-16.4031" id="path2295" style="color:#000000;fill:none;stroke:#000000;stroke-width:12;stroke-linecap:round;stroke-linejoin:miter;stroke-miterlimit:4;stroke-opacity:1;stroke-dasharray:none;stroke-dashoffset:0;marker:none;visibility:visible;display:inline;overflow:visible;enable-background:accumulate"/>
  </g>
  <path d="m 362.11019,408.57877 c 208.87142,-144.84934 405.53193,-135.50462 610.14152,0" id="path3934" style="fill:none;stroke:#00d200;stroke-width:12;stroke-linecap:butt;stroke-linejoin:miter;stroke-miterlimit:4;stroke-opacity:1;stroke-dasharray:none;marker-start:url(#Arrow1Sstartj);marker-mid:none;marker-end:url(#Arrow1Send9)"/>
  <path d="m 921.67388,80.444399 c 16.38535,0 27.25487,95.676521 27.25487,183.460121 0.2406,44.48656 -4.96563,124.23388 -16.79268,124.23388" id="path4001" style="fill:none;stroke:#000000;stroke-width:8;stroke-linecap:round;stroke-linejoin:round;stroke-miterlimit:4;stroke-opacity:1;stroke-dasharray:none"/>
  <path d="m 550.30555,396.90265 c 37.88166,-66.35029 202.32217,-74.87206 239.94272,13.42694" id="path3936" style="fill:none;stroke:#00d200;stroke-width:12;stroke-linecap:butt;stroke-linejoin:miter;stroke-miterlimit:4;stroke-opacity:1;stroke-dasharray:none;marker-start:url(#Arrow1Sstart1);marker-mid:none;marker-end:url(#Arrow1SendJ)"/>
  <path d="m 899.42236,80.444409 c 16.38533,0 27.25487,95.676511 27.25487,183.460111 0.24058,44.48656 -4.70808,124.23388 -16.39808,124.23388" id="path4005" style="fill:none;stroke:#000000;stroke-width:8;stroke-linecap:round;stroke-linejoin:round;stroke-miterlimit:4;stroke-opacity:1;stroke-dasharray:none"/>
  <path d="m 876.7588,80.444409 c 16.38532,0 27.25487,95.676511 27.25487,183.460111 0.24057,44.48656 -4.70811,124.23388 -16.19207,124.23388" id="path4009" style="fill:none;stroke:#000000;stroke-width:8;stroke-linecap:round;stroke-linejoin:round;stroke-miterlimit:4;stroke-opacity:1;stroke-dasharray:none"/>
  <path d="m 854.50729,80.444409 c 16.38533,0 27.25487,95.676511 27.25487,183.460111 0.24057,44.48656 -4.70811,124.23388 -16.39811,124.23388" id="path4013" style="fill:none;stroke:#000000;stroke-width:8;stroke-linecap:round;stroke-linejoin:round;stroke-miterlimit:4;stroke-opacity:1;stroke-dasharray:none"/>
  <path d="m 672.99426,388.13841 c 10.37606,0 14.85176,-74.2825 14.91886,-124.23388 0.11825,-88.86039 -10.1348,-183.460129 -26.51962,-183.460129" id="path3983" style="fill:none;stroke:#000000;stroke-width:8;stroke-linecap:round;stroke-linejoin:round;stroke-miterlimit:4;stroke-opacity:1;stroke-dasharray:none"/>
  <path d="m 650.53671,388.13841 c 10.58211,0 15.05787,-74.2825 15.12487,-124.23388 0.11825,-88.86039 -10.13479,-183.460139 -26.5196,-183.460139" id="path3979" style="fill:none;stroke:#000000;stroke-width:8;stroke-linecap:round;stroke-linejoin:round;stroke-miterlimit:4;stroke-opacity:1;stroke-dasharray:none"/>
  <path d="m 628.67979,388.13841 c 10.71915,0 15.19491,-74.2825 15.26191,-124.23388 0.11827,-88.86039 -10.13476,-183.460129 -26.51959,-183.460129" id="path3975" style="fill:none;stroke:#000000;stroke-width:8;stroke-linecap:round;stroke-linejoin:round;stroke-miterlimit:4;stroke-opacity:1;stroke-dasharray:none"/>
  <path d="M 722.55689,419.54298 C 728.60284,402.3595 735.06135,313.68209 735.12835,263.73071 735.2466,174.87032 724.99356,80.270587 708.60873,80.270587" id="path3991" style="fill:none;stroke:#000000;stroke-width:8;stroke-linecap:round;stroke-linejoin:round;stroke-miterlimit:4;stroke-opacity:1;stroke-dasharray:none"/>
  <path d="m 695.45181,388.13841 c 10.58208,0 15.05788,-74.2825 15.12488,-124.23388 0.11824,-88.86039 -10.1348,-183.460129 -26.51963,-183.460129" id="path3987" style="fill:none;stroke:#000000;stroke-width:8;stroke-linecap:round;stroke-linejoin:round;stroke-miterlimit:4;stroke-opacity:1;stroke-dasharray:none"/>
  <text x="112.2122" y="404.5575" id="text5409" xml:space="preserve" style="font-size:84px;font-style:normal;font-variant:normal;font-weight:normal;font-stretch:normal;text-align:start;line-height:125%;letter-spacing:0px;word-spacing:0px;writing-mode:lr-tb;text-anchor:start;fill:#000000;fill-opacity:1;stroke:none;font-family:Arial;-inkscape-font-specification:Arial"><tspan x="112.2122" y="404.5575" id="tspan5411">s</tspan></text>
  <text x="541.87518" y="632.54584" id="text7182" xml:space="preserve" style="font-size:40px;font-style:normal;font-weight:normal;line-height:125%;letter-spacing:0px;word-spacing:0px;fill:#000000;fill-opacity:1;stroke:none;font-family:Sans"><tspan x="541.87518" y="632.54584" id="tspan7184"/></text>
  <text x="36.945312" y="534.73218" id="text7200" xml:space="preserve" style="font-size:68px;font-style:normal;font-variant:normal;font-weight:normal;font-stretch:normal;text-align:start;line-height:100%;letter-spacing:0px;word-spacing:0px;writing-mode:lr-tb;text-anchor:start;fill:#000000;fill-opacity:1;stroke:none;font-family:Arial;-inkscape-font-specification:Arial"><tspan x="36.945312" y="534.73218" id="tspan7202">Power</tspan><tspan x="36.945312" y="602.73218" id="tspan7204">Source</tspan></text>
  <text x="1237.5962" y="560.24365" transform="scale(1.0546401,0.94819076)" id="text7206" xml:space="preserve" style="font-size:68px;font-style:normal;font-variant:normal;font-weight:normal;font-stretch:normal;text-align:start;line-height:119.00000572%;letter-spacing:0px;word-spacing:0px;writing-mode:lr-tb;text-anchor:start;fill:#000000;fill-opacity:1;stroke:none;font-family:Arial;-inkscape-font-specification:Arial"><tspan x="1237.5962" y="560.24365" id="tspan7208">Load</tspan></text>
  <text x="906.10626" y="559.21564" transform="scale(1.0546401,0.94819076)" id="text3965" xml:space="preserve" style="font-size:68px;font-style:normal;font-variant:normal;font-weight:normal;font-stretch:normal;text-align:start;line-height:119.00000572%;letter-spacing:0px;word-spacing:0px;writing-mode:lr-tb;text-anchor:start;fill:#000000;fill-opacity:1;stroke:none;font-family:Arial;-inkscape-font-specification:Arial"><tspan x="906.10626" y="559.21564" id="tspan5407">  Rectifier</tspan></text>
  <text x="281.9928" y="561.16254" transform="scale(1.0546401,0.94819076)" id="text3969" xml:space="preserve" style="font-size:68px;font-style:normal;font-variant:normal;font-weight:normal;font-stretch:normal;text-align:start;line-height:119.00000572%;letter-spacing:0px;word-spacing:0px;writing-mode:lr-tb;text-anchor:start;fill:#000000;fill-opacity:1;stroke:none;font-family:Arial;-inkscape-font-specification:Arial"><tspan x="281.9928" y="561.16254" id="tspan3971">Oscillator</tspan></text>
  <text x="717.258" y="268.86392" transform="scale(1.0546401,0.94819076)" id="text5403" xml:space="preserve" style="font-size:68.26972961px;font-style:oblique;font-variant:normal;font-weight:normal;font-stretch:normal;text-align:start;line-height:125%;letter-spacing:0px;word-spacing:0px;writing-mode:lr-tb;text-anchor:start;fill:#000000;fill-opacity:1;stroke:none;font-family:Arial;-inkscape-font-specification:Arial Oblique"><tspan x="717.258" y="268.86392" id="tspan5405">B</tspan></text>
  <text x="612.7467" y="561.16254" transform="scale(1.0546401,0.94819076)" id="text3086" xml:space="preserve" style="font-size:68px;font-style:oblique;font-variant:normal;font-weight:normal;font-stretch:normal;text-align:start;line-height:119.00000572%;letter-spacing:0px;word-spacing:0px;writing-mode:lr-tb;text-anchor:start;fill:#000000;fill-opacity:1;stroke:none;font-family:Arial;-inkscape-font-specification:Arial Oblique"><tspan x="612.7467" y="561.16254" id="tspan3088">L1</tspan></text>
  <text x="798.72992" y="561.16254" transform="scale(1.0546401,0.94819076)" id="text3090" xml:space="preserve" style="font-size:68px;font-style:oblique;font-variant:normal;font-weight:normal;font-stretch:normal;text-align:start;line-height:119.00000572%;letter-spacing:0px;word-spacing:0px;writing-mode:lr-tb;text-anchor:start;fill:#000000;fill-opacity:1;stroke:none;font-family:Arial;-inkscape-font-specification:Arial Oblique"><tspan x="798.72992" y="561.16254" id="tspan3092">L2</tspan></text>
  <path d="m -458.75,1517.7589 -22.30357,-38.6309 44.60713,0 z" transform="matrix(-2.0570056,0,0,1.6920046,210.5072,-2184.2755)" id="path15600" style="fill:#000000;fill-opacity:1;stroke:#000000;stroke-width:4.28816462;stroke-linecap:round;stroke-linejoin:round;stroke-miterlimit:3.9375;stroke-opacity:1;stroke-dasharray:none;stroke-dashoffset:0"/>
  <path d="m 1203.577,382.76747 -97.7855,0" id="path17556" style="fill:none;stroke:#000000;stroke-width:8;stroke-linecap:round;stroke-linejoin:round;stroke-miterlimit:3.9375;stroke-opacity:1;stroke-dasharray:none"/>
  <path d="m 1154.509,318.85422 0,-34.33271" id="path17558" style="fill:none;stroke:#000000;stroke-width:8;stroke-linecap:round;stroke-linejoin:round;stroke-miterlimit:3.9375;stroke-opacity:1;stroke-dasharray:none"/>
  <path d="m 1154.509,382.76747 0,31.69231" id="path17560" style="fill:none;stroke:#000000;stroke-width:8;stroke-linecap:round;stroke-linejoin:round;stroke-miterlimit:3.9375;stroke-opacity:1;stroke-dasharray:none"/>
  <text x="-17.677439" y="2102.0115" id="text8623-3" xml:space="preserve" style="font-size:72px;font-style:normal;font-variant:normal;font-weight:normal;font-stretch:normal;text-align:start;line-height:100%;letter-spacing:0px;word-spacing:0px;writing-mode:lr-tb;text-anchor:start;fill:#000000;fill-opacity:1;stroke:none;font-family:Arial;-inkscape-font-specification:Arial"><tspan x="-17.677439" y="2102.0115" id="tspan8625-3"/></text>
  <text x="-154.67645" y="1599.6354" id="text7182-6" xml:space="preserve" style="font-size:40px;font-style:normal;font-weight:normal;line-height:125%;letter-spacing:0px;word-spacing:0px;fill:#000000;fill-opacity:1;stroke:none;font-family:Sans"><tspan x="-154.67645" y="1599.6354" id="tspan7184-3"/></text>
</svg>