<?xml version="1.0" encoding="utf-8"?>
<svg version="1.1" xmlns="http://www.w3.org/2000/svg"
	xmlns:xlink="http://www.w3.org/1999/xlink" x="0px" y="0px"
	viewBox="55 0 175 140" width="24" xml:space="preserve">
<g>
	<g>
		<path d="M63.4,33.4l76,18.9c4.1,1,6,5.7,3.7,9.3c-10.7,17.1-31.5,25.5-51.6,20.5S57.1,59.9,55.7,39.8
			C55.4,35.6,59.3,32.4,63.4,33.4"/>
		<path d="M219.9,33.4l-76,18.9c-4.1,1-6,5.7-3.7,9.3c10.7,17.1,31.5,25.5,51.6,20.5s34.5-22.2,35.9-42.3
			C227.8,35.6,224,32.4,219.9,33.4"/>
		<path d="M83.1,112.3L83.1,112.3c2.5-2.7,6.8-2.9,9.5-0.3l7.8,7.3c2.7,2.5,2.9,6.8,0.3,9.5c-2.5,2.7-6.8,2.9-9.5,0.3
			l-7.8-7.3C80.7,119.3,80.6,115,83.1,112.3"/>
		<path d="M200.6,112.3L200.6,112.3c-2.5-2.7-6.8-2.9-9.5-0.3l-7.8,7.3c-2.7,2.5-2.9,6.8-0.3,9.5
			c2.5,2.7,6.8,2.9,9.5,0.3l7.8-7.3C203,119.3,203.1,115,200.6,112.3"/>
		<path d="M114.1,1.4c13.6,5.8,22.9,8.6,28,8.6c5,0,14.2-2.8,27.5-8.5c8.9-3.8,19.2,0.4,23,9.3c0.9,2.2,1.4,4.5,1.4,6.9
			v54.2c0,28.8-23.4,52.2-52.2,52.2s-52.2-23.4-52.2-52.2V17.6C89.6,7.9,97.5,0,107.2,0C109.6,0.1,111.9,0.5,114.1,1.4"/>
	</g>
</g>
</svg>