<svg version="1.1" id="Layer_1" xmlns="http://www.w3.org/2000/svg"
    xmlns:xlink="http://www.w3.org/1999/xlink" x="0px" y="0px"
    viewBox="200 200 1800 1800" width="24">
    <path stroke="none"
        d="
M506.261230,741.733887
	C451.663361,707.420044 397.762146,672.721191 347.217865,633.123413
	C316.720917,609.231262 287.725525,583.724304 263.554413,553.205200
	C244.532074,529.187134 230.015579,502.876709 222.944672,472.196106
	C224.522614,472.196106 225.911591,472.054504 227.263931,472.217316
	C248.333847,474.753479 269.421814,477.155701 290.461487,479.924377
	C403.847076,494.845154 515.140808,519.164368 623.746887,555.172058
	C765.297424,602.102417 897.384338,667.737183 1017.864929,756.044861
	C1090.958252,809.619629 1157.578369,870.363159 1218.611938,937.331604
	C1226.295288,945.762024 1235.251465,953.163879 1244.294922,960.168335
	C1248.875122,963.715759 1254.781006,965.942932 1260.429077,967.609985
	C1266.065918,969.273743 1271.937744,967.330994 1276.214722,963.607178
	C1282.951294,957.741821 1289.915771,951.708130 1295.038330,944.504578
	C1307.279785,927.290466 1318.617310,909.426575 1330.113159,891.690979
	C1355.351440,852.753235 1385.295288,818.211548 1423.302368,791.119202
	C1462.618286,763.093872 1506.076294,745.137451 1553.892944,738.350403
	C1568.274902,736.309021 1582.905762,735.967712 1597.434814,735.038818
	C1605.528076,734.521362 1613.665405,733.898254 1621.749634,734.202698
	C1637.631958,734.800659 1653.534058,735.563843 1669.351074,737.065918
	C1701.160645,740.086731 1732.583252,745.548767 1763.412842,754.055420
	C1768.327271,755.411377 1773.182373,757.442017 1777.622559,759.945251
	C1783.665283,763.351868 1783.841309,768.359680 1778.481079,772.711670
	C1775.773438,774.910034 1772.871338,776.900269 1769.911621,778.751831
	C1722.163330,808.622925 1693.153931,852.269958 1676.001831,905.024719
	C1660.120239,953.871826 1648.503540,1003.737488 1640.143921,1054.308350
	C1629.168945,1120.701172 1613.050781,1185.519897 1586.193359,1247.430298
	C1543.818604,1345.110840 1483.559692,1430.040405 1404.606445,1501.497070
	C1315.305420,1582.318848 1212.248047,1637.857666 1095.401367,1667.244995
	C1069.808960,1673.681519 1043.738281,1678.451294 1017.680481,1682.722290
	C999.885193,1685.639160 981.759888,1687.233032 963.727966,1687.859985
	C933.815125,1688.899780 903.846130,1689.330566 873.925537,1688.747559
	C857.117126,1688.420044 840.315979,1685.878540 823.585571,1683.752075
	C777.621155,1677.910034 732.631531,1667.632080 688.677917,1652.956055
	C675.464417,1648.544189 662.418030,1643.631958 649.308594,1637.735107
	C652.895630,1637.209717 656.474731,1636.621826 660.070801,1636.168091
	C756.561951,1623.996582 844.244080,1589.091797 923.807312,1533.530396
	C986.762451,1489.566528 1039.311768,1435.118408 1083.678589,1372.670898
	C1089.803345,1364.050293 1094.809082,1354.508545 1099.305542,1344.911865
	C1101.472168,1340.287720 1101.496216,1334.569336 1102.046875,1329.300171
	C1102.814697,1321.952393 1097.923340,1318.030640 1091.967407,1316.298218
	C1085.538208,1314.428101 1078.651245,1312.984497 1072.017822,1313.180542
	C1052.553955,1313.755859 1033.077393,1314.784058 1013.678467,1316.470459
	C983.974670,1319.052856 954.283264,1321.217285 924.443970,1320.117065
	C855.333008,1317.568726 793.380920,1294.972900 738.014282,1253.740723
	C699.731873,1225.231445 665.828857,1192.026855 634.414612,1156.307129
	C611.868042,1130.670410 590.438721,1104.051147 568.518433,1077.863892
	C567.673279,1076.854248 566.905518,1075.779907 565.505249,1073.961060
	C630.876099,1057.334106 696.716614,1047.953125 763.455505,1043.390137
	C754.190613,1040.938354 744.885925,1038.627197 735.667114,1036.012939
	C654.513550,1012.999268 578.512085,978.892578 509.403687,930.179749
	C466.323273,899.813354 428.125061,864.387085 398.277252,820.559448
	C395.294189,816.179138 392.522827,811.654724 388.889130,806.010193
	C400.529877,803.226196 411.307831,800.139160 422.282257,798.119507
	C454.884857,792.119324 487.834351,791.381104 520.866516,792.568115
	C531.636169,792.955139 542.408752,793.315308 553.169067,793.891602
	C563.727905,794.457153 574.271179,795.308411 584.825134,795.972107
	C587.104248,796.115356 589.400024,795.992859 591.688049,795.992859
	C591.884155,795.538940 592.080261,795.085022 592.276306,794.631104
	C563.706299,777.064026 535.136230,759.497009 506.261230,741.733887
M1588.008301,871.581116
	C1603.646729,860.078918 1608.446533,841.108643 1599.851074,824.775574
	C1591.677002,809.243103 1572.983521,801.718262 1556.383057,807.587830
	C1542.403442,812.530701 1534.087891,822.693054 1532.276001,837.271179
	C1530.486938,851.665344 1536.002930,863.517944 1548.135376,871.606750
	C1560.964355,880.160095 1574.229492,879.906677 1588.008301,871.581116
z" />
    <path stroke="none"
        d="
M840.697998,440.339417
	C827.024841,398.379669 815.961792,356.143768 806.867371,312.771912
	C808.130432,313.181152 808.868408,313.340607 809.538025,313.648560
	C887.637695,349.568115 961.716675,392.201447 1030.598145,443.884033
	C1098.697754,494.979950 1152.642212,558.088806 1194.693726,631.832703
	C1226.060303,686.838806 1252.059448,744.068359 1267.244507,805.730957
	C1271.320679,822.283813 1273.939575,839.305969 1275.745605,856.270447
	C1277.067749,868.688538 1276.338745,881.382263 1275.749756,893.916809
	C1275.531250,898.570068 1273.704956,903.871765 1268.286621,905.372864
	C1263.025146,906.830444 1259.563354,902.871521 1256.463623,899.457031
	C1178.753540,813.856140 1089.816528,741.403137 994.988403,675.812805
	C977.342163,663.607300 959.136414,652.122620 944.107605,636.453552
	C921.533264,612.917419 904.089233,585.859314 888.943970,557.193359
	C869.234741,519.888855 854.038086,480.709869 840.697998,440.339417
z" />
    <path opacity="0" stroke="none"
        d="
M1587.700073,871.779053
	C1574.229492,879.906677 1560.964355,880.160095 1548.135376,871.606750
	C1536.002930,863.517944 1530.486938,851.665344 1532.276001,837.271179
	C1534.087891,822.693054 1542.403442,812.530701 1556.383057,807.587830
	C1572.983521,801.718262 1591.677002,809.243103 1599.851074,824.775574
	C1608.446533,841.108643 1603.646729,860.078918 1587.700073,871.779053
z" />
</svg>
